<?xml version="1.0" standalone="no"?>
<!DOCTYPE svg PUBLIC "-//W3C//DTD SVG 20010904//EN"
 "http://www.w3.org/TR/2001/REC-SVG-20010904/DTD/svg10.dtd">
<svg version="1.0" xmlns="http://www.w3.org/2000/svg"
 width="2928.000000pt" height="3072.000000pt" viewBox="0 0 2928.000000 3072.000000"
 preserveAspectRatio="xMidYMid meet">

<g transform="translate(0.000000,3072.000000) scale(0.100000,-0.100000)"
fill="#FF0000" stroke="none">
<path d="M9020 23679 c-47 -4 -150 -14 -230 -23 -80 -8 -185 -18 -235 -21
-195 -13 -485 -55 -510 -74 -12 -10 -103 -40 -141 -47 -97 -18 -343 -87 -364
-103 -32 -23 -98 -53 -170 -76 -30 -10 -102 -49 -159 -87 -58 -37 -110 -68
-116 -68 -7 0 -38 -23 -69 -50 -32 -28 -74 -59 -95 -69 -44 -23 -301 -274
-358 -351 -22 -30 -50 -64 -63 -75 -12 -11 -35 -45 -51 -75 -16 -30 -42 -77
-59 -105 -53 -87 -67 -118 -89 -190 -12 -38 -37 -101 -56 -140 -26 -54 -43
-117 -75 -280 -23 -115 -54 -266 -70 -336 -28 -122 -88 -588 -110 -854 -6 -71
-13 -146 -17 -165 -5 -33 -18 -6503 -17 -9010 0 -1140 1 -1195 22 -1435 13
-137 29 -290 37 -340 8 -49 23 -158 35 -240 23 -173 22 -163 48 -275 12 -47
23 -98 25 -115 9 -61 80 -370 93 -407 7 -22 22 -51 33 -66 10 -15 35 -77 56
-138 25 -78 53 -135 92 -195 30 -46 63 -103 72 -126 9 -23 31 -58 48 -78 18
-20 46 -62 63 -94 35 -65 162 -225 254 -319 33 -34 70 -72 81 -83 48 -50 177
-154 255 -205 47 -31 96 -66 110 -79 14 -13 52 -37 85 -55 33 -18 71 -43 85
-56 14 -13 64 -37 110 -54 47 -17 132 -54 190 -84 69 -35 138 -61 200 -76 59
-14 116 -35 151 -56 68 -40 171 -62 589 -120 50 -7 69 -11 120 -23 149 -34
210 -41 390 -48 196 -7 253 3 326 54 21 16 61 40 87 53 27 14 59 38 70 54 12
16 47 54 78 85 31 31 71 80 88 108 18 29 37 53 42 53 5 0 36 34 69 76 34 42
94 113 133 157 40 44 96 108 126 141 136 153 200 222 381 411 26 28 60 69 74
92 14 23 40 52 57 65 16 12 40 39 51 58 12 19 44 60 73 90 29 30 58 64 66 76
8 12 43 54 79 94 36 40 78 91 93 114 15 22 54 66 85 96 31 31 89 93 127 139
39 45 93 106 120 135 94 100 180 199 200 231 11 18 35 45 54 61 19 15 42 42
52 58 20 33 131 162 284 329 55 61 116 128 135 150 19 23 62 71 96 107 33 36
71 81 84 100 13 19 44 56 69 81 65 66 153 165 201 227 23 29 47 55 55 58 7 3
24 22 38 42 13 20 51 67 83 103 32 37 77 92 98 123 22 31 43 56 47 56 5 0 27
26 50 58 24 31 99 116 168 188 173 181 265 283 272 302 4 9 25 32 48 51 24 18
55 51 71 73 29 39 99 125 133 160 9 10 17 21 17 24 0 3 20 26 45 52 77 79 181
196 198 221 9 14 45 54 80 90 35 36 79 87 98 112 19 25 51 60 71 78 20 17 50
52 67 77 16 25 46 58 66 74 20 16 50 50 67 75 17 25 43 52 58 60 16 8 39 29
52 47 12 18 48 60 79 94 31 33 68 81 84 107 15 26 36 52 46 57 10 6 43 44 73
85 76 102 241 294 335 390 43 44 86 94 96 110 10 17 36 44 59 60 22 17 58 56
79 88 20 31 50 63 66 72 16 8 43 37 59 64 17 27 46 61 65 76 20 14 40 38 45
53 11 29 25 46 89 103 22 20 54 57 71 82 17 24 38 47 46 50 8 3 32 30 54 59
22 29 86 104 143 166 57 63 129 145 159 183 30 38 72 83 93 100 21 17 44 45
51 63 7 18 36 49 64 69 27 21 67 64 88 97 22 32 49 64 61 69 12 6 34 29 48 51
14 22 47 64 74 93 27 28 66 75 87 102 21 28 42 55 48 61 6 6 25 28 41 49 34
44 162 181 315 336 56 57 118 124 138 149 20 25 57 66 82 91 25 25 52 59 60
75 8 16 24 36 34 44 40 30 91 87 106 116 19 39 51 74 67 74 7 0 25 19 40 43
15 23 50 67 78 98 27 30 88 98 133 151 46 53 107 121 135 150 92 95 206 222
231 257 14 18 49 57 78 85 67 66 147 159 180 211 14 22 43 56 63 75 20 19 52
58 71 87 18 29 47 59 63 68 17 8 50 46 75 83 24 37 60 83 78 103 19 19 50 58
68 85 18 27 65 83 103 124 39 41 84 90 100 108 16 17 37 32 47 32 9 0 37 7 62
16 l46 15 69 -38 c116 -65 127 -107 108 -423 -12 -209 -12 -345 -1 -590 20
-408 -4 -7420 -26 -7730 -13 -181 -16 -1845 -3 -1921 6 -39 44 -138 78 -208
17 -35 60 -57 133 -71 72 -14 361 0 534 25 88 13 252 57 275 75 6 4 28 10 50
14 22 4 60 11 85 16 25 5 85 14 134 20 129 16 206 38 243 70 28 25 87 48 198
79 22 6 67 30 100 55 33 24 97 61 142 80 46 20 94 47 107 59 13 13 55 38 92
57 37 19 76 42 85 51 9 9 37 29 62 43 24 14 53 36 63 47 10 11 33 27 50 34 17
7 44 29 60 50 16 20 46 45 66 56 21 11 56 43 79 72 23 28 57 65 76 81 19 16
43 48 53 70 10 23 33 57 52 77 53 57 88 106 113 162 14 29 38 63 55 75 16 13
30 27 30 32 0 13 93 202 128 260 15 25 33 63 41 85 20 58 51 124 83 174 15 25
28 59 28 76 0 18 4 45 9 61 5 16 19 63 31 104 28 96 37 124 65 186 37 81 56
194 75 439 5 72 12 146 15 165 2 19 7 77 10 128 3 52 12 124 19 160 39 188 39
88 37 5327 0 2789 -3 5106 -7 5150 -3 44 -9 94 -14 110 -8 26 -16 77 -25 165
-9 82 -21 234 -45 585 -13 179 -28 260 -73 375 -49 125 -63 172 -88 305 -12
66 -28 127 -34 135 -29 37 -105 209 -105 238 0 6 -11 23 -24 39 -13 15 -49 78
-80 138 -32 61 -72 124 -91 140 -34 31 -68 88 -59 98 3 3 -26 37 -65 77 -39
39 -71 76 -71 81 0 5 -28 28 -62 50 -35 22 -78 56 -95 75 -18 19 -39 34 -47
34 -8 0 -47 25 -88 56 -40 31 -111 75 -158 97 -46 22 -98 53 -115 69 -40 39
-71 51 -215 83 -28 6 -75 26 -147 62 -40 19 -89 39 -110 44 -59 12 -236 59
-258 68 -37 16 -160 50 -195 55 -19 3 -82 13 -140 21 -58 9 -112 18 -120 20
-8 2 -73 9 -145 15 -71 6 -143 13 -160 15 -51 7 -440 7 -512 0 -37 -4 -88 -13
-113 -20 -25 -7 -57 -16 -71 -19 -30 -7 -155 -102 -211 -161 -21 -22 -53 -56
-71 -75 -18 -19 -42 -42 -55 -50 -12 -8 -25 -23 -28 -34 -4 -10 -32 -46 -63
-80 -31 -34 -67 -76 -80 -95 -14 -19 -44 -53 -68 -77 -24 -24 -43 -50 -43 -59
0 -8 -25 -40 -56 -70 -58 -59 -144 -160 -144 -171 0 -5 -104 -128 -130 -154
-3 -3 -27 -32 -55 -65 -27 -33 -77 -88 -112 -123 -35 -34 -63 -68 -63 -75 -1
-19 -32 -52 -78 -81 -23 -14 -50 -43 -61 -64 -20 -40 -39 -59 -75 -77 -11 -6
-32 -31 -46 -57 -14 -25 -45 -68 -70 -96 -25 -28 -73 -81 -106 -119 -34 -37
-83 -94 -109 -126 -26 -32 -78 -90 -116 -130 -38 -40 -69 -75 -69 -79 0 -5 -9
-17 -20 -28 -41 -41 -196 -218 -210 -240 -8 -13 -34 -44 -56 -69 -23 -26 -51
-64 -62 -87 -11 -22 -36 -51 -54 -63 -18 -13 -44 -39 -58 -59 -14 -19 -50 -62
-81 -96 -31 -34 -76 -88 -100 -121 -24 -33 -64 -81 -89 -106 -25 -25 -81 -88
-125 -139 -44 -52 -106 -120 -137 -152 -32 -32 -58 -62 -58 -68 0 -5 -30 -40
-67 -79 -112 -115 -195 -208 -206 -227 -6 -11 -17 -23 -24 -27 -8 -5 -35 -36
-59 -70 -45 -60 -93 -116 -249 -285 -44 -48 -89 -103 -99 -122 -10 -20 -33
-46 -52 -58 -18 -12 -51 -48 -73 -81 -22 -32 -51 -67 -64 -77 -14 -11 -43 -47
-66 -82 -23 -34 -53 -69 -66 -78 -13 -9 -36 -36 -50 -60 -15 -25 -44 -58 -66
-74 -22 -16 -50 -41 -61 -57 -12 -15 -42 -51 -67 -79 -73 -80 -102 -115 -146
-174 -23 -30 -50 -62 -60 -70 -19 -16 -114 -139 -156 -202 -14 -22 -44 -59
-66 -81 -22 -23 -52 -60 -67 -83 -33 -50 -81 -78 -171 -99 l-70 -15 -85 35
c-76 31 -93 43 -163 117 -42 46 -86 100 -97 120 -27 51 -103 138 -348 399
-113 121 -216 236 -228 257 -12 20 -47 59 -78 85 -31 27 -56 54 -56 60 -1 16
-40 62 -65 75 -11 6 -36 36 -54 69 -19 32 -58 83 -85 113 -79 86 -105 117
-199 232 -48 59 -98 115 -110 125 -12 10 -30 31 -41 47 -10 16 -45 56 -77 90
-32 33 -59 64 -59 68 0 4 -31 40 -70 80 -38 40 -86 91 -107 113 -21 22 -49 58
-62 80 -13 22 -41 58 -61 80 -21 22 -51 58 -66 81 -16 22 -72 87 -125 145
-257 279 -326 357 -349 391 -14 21 -28 38 -32 38 -5 0 -32 33 -62 73 -30 39
-75 92 -100 117 -25 24 -46 49 -46 55 0 7 -28 41 -63 78 -35 36 -88 96 -118
132 -102 126 -239 284 -287 332 -27 26 -67 75 -89 108 -22 33 -52 67 -67 74
-30 16 -70 65 -80 98 -4 12 -27 38 -52 58 -24 20 -51 50 -60 67 -8 16 -39 56
-67 87 -29 32 -72 83 -96 114 -24 32 -47 57 -51 57 -4 0 -19 18 -34 40 -24 36
-78 97 -251 285 -36 39 -75 84 -87 100 -13 17 -33 39 -46 49 -13 11 -37 38
-54 60 -16 23 -55 69 -86 104 -142 157 -161 179 -178 208 -26 42 -111 139
-215 244 -84 85 -88 88 -180 118 -160 53 -244 60 -449 41z m762 -6055 c26 -13
60 -40 75 -60 15 -20 54 -66 86 -102 32 -36 73 -86 90 -111 16 -26 53 -71 81
-102 114 -125 176 -196 205 -236 17 -23 39 -47 50 -53 11 -5 41 -39 66 -75 26
-36 60 -74 76 -86 17 -12 42 -40 56 -63 14 -22 46 -62 72 -87 25 -26 78 -81
116 -124 39 -42 95 -103 125 -135 46 -49 116 -125 197 -215 10 -11 36 -43 58
-70 21 -28 63 -74 92 -103 29 -29 53 -58 53 -65 0 -7 22 -35 50 -62 27 -27 63
-69 81 -94 17 -25 45 -55 62 -66 17 -11 42 -40 56 -63 14 -24 44 -57 66 -73
22 -17 53 -49 68 -72 15 -23 49 -62 75 -87 90 -86 146 -228 146 -368 -1 -71
-78 -227 -142 -286 -24 -23 -57 -60 -73 -83 -33 -48 -40 -54 -103 -107 -25
-21 -46 -44 -46 -51 0 -7 -21 -32 -47 -55 -26 -23 -60 -60 -74 -82 -27 -40
-78 -100 -191 -222 -32 -34 -68 -76 -80 -93 -13 -18 -79 -95 -148 -171 -129
-144 -209 -237 -270 -313 -19 -24 -59 -68 -87 -96 -29 -29 -53 -59 -53 -67 0
-8 -23 -34 -51 -58 -28 -24 -65 -63 -81 -88 -17 -25 -48 -63 -70 -85 -36 -37
-80 -90 -206 -250 -26 -33 -64 -78 -85 -100 -22 -22 -53 -60 -69 -85 -17 -25
-52 -66 -77 -92 -25 -25 -64 -66 -87 -91 -34 -37 -49 -45 -102 -56 -43 -8 -67
-9 -81 -1 -32 17 -88 92 -100 135 -24 84 -31 247 -20 465 7 136 12 981 13
2295 2 1497 6 2089 14 2114 14 40 36 77 69 112 22 24 28 26 61 17 21 -6 58
-21 84 -34z"/>
</g>
</svg>
